# xmcd
#
# Track frame offsets:
# 150
# 20477
# 37780
# 51794
# 65831
# 81689
# 99911
# 114476
# 130686
# 143621
#
# Disc length: 2305 seconds
#
#
# Revision: 0
# Processed by: cddbd v1.5.1PL0 Copyright (c) Steve Scherf et al.
# Submitted via: FreeRIP 2.91 
#
DISCID=8108ff0a
DTITLE=Nino Bravo - Gold - Grandes Exitos
DYEAR=2002
DGENRE=Ballad
TTITLE0=Un beso y una flor
TTITLE1=Cartas amarillas
TTITLE2=Como todos
TTITLE3=Aquel amor
TTITLE4=America. America
TTITLE5=Vivir
TTITLE6=Hoy soy feliz
TTITLE7=Cantare
TTITLE8=Mis noches sin ti
TTITLE9=Medley
EXTD=
EXTT0=
EXTT1=
EXTT2=
EXTT3=
EXTT4=
EXTT5=
EXTT6=
EXTT7=
EXTT8=
EXTT9=
PLAYORDER=
